<mxfile host="Electron" modified="2023-05-30T12:46:54.559Z" agent="Mozilla/5.0 (X11; Linux x86_64) AppleWebKit/537.36 (KHTML, like Gecko) draw.io/21.2.8 Chrome/112.0.5615.165 Electron/24.2.0 Safari/537.36" etag="d4GFDmllNb3lCp3l9hVa" version="21.2.8" type="device">
  <diagram name="Page-1" id="-HQTeehpdAGbnKUaKj_h">
    <mxGraphModel dx="2459" dy="992" grid="1" gridSize="10" guides="1" tooltips="1" connect="1" arrows="1" fold="1" page="1" pageScale="1" pageWidth="850" pageHeight="1100" math="0" shadow="0">
      <root>
        <mxCell id="0" />
        <mxCell id="1" parent="0" />
        <mxCell id="la51kNFiHTf-xQGP7l3h-1" value="" style="shape=cube;whiteSpace=wrap;html=1;boundedLbl=1;backgroundOutline=1;darkOpacity=0.05;darkOpacity2=0.1;" vertex="1" parent="1">
          <mxGeometry x="-70" y="680" width="1240" height="740" as="geometry" />
        </mxCell>
        <mxCell id="la51kNFiHTf-xQGP7l3h-2" style="edgeStyle=orthogonalEdgeStyle;rounded=0;orthogonalLoop=1;jettySize=auto;html=1;exitX=1;exitY=0.5;exitDx=0;exitDy=0;entryX=0;entryY=0.5;entryDx=0;entryDy=0;" edge="1" parent="1" source="la51kNFiHTf-xQGP7l3h-3" target="la51kNFiHTf-xQGP7l3h-9">
          <mxGeometry relative="1" as="geometry" />
        </mxCell>
        <mxCell id="la51kNFiHTf-xQGP7l3h-3" value="" style="rounded=1;whiteSpace=wrap;html=1;" vertex="1" parent="1">
          <mxGeometry x="310" y="730" width="100" height="400" as="geometry" />
        </mxCell>
        <mxCell id="la51kNFiHTf-xQGP7l3h-4" value="&lt;font style=&quot;font-size: 24px;&quot;&gt;Deep Reccurent Neural Network&lt;/font&gt;" style="rounded=0;whiteSpace=wrap;html=1;" vertex="1" parent="1">
          <mxGeometry x="20" y="890" width="170" height="230" as="geometry" />
        </mxCell>
        <mxCell id="la51kNFiHTf-xQGP7l3h-5" value="" style="ellipse;whiteSpace=wrap;html=1;aspect=fixed;" vertex="1" parent="1">
          <mxGeometry x="320" y="890" width="80" height="80" as="geometry" />
        </mxCell>
        <mxCell id="la51kNFiHTf-xQGP7l3h-6" value="" style="ellipse;whiteSpace=wrap;html=1;aspect=fixed;" vertex="1" parent="1">
          <mxGeometry x="320" y="790" width="80" height="80" as="geometry" />
        </mxCell>
        <mxCell id="la51kNFiHTf-xQGP7l3h-7" value="" style="ellipse;whiteSpace=wrap;html=1;aspect=fixed;" vertex="1" parent="1">
          <mxGeometry x="320" y="980" width="80" height="80" as="geometry" />
        </mxCell>
        <mxCell id="la51kNFiHTf-xQGP7l3h-8" style="edgeStyle=orthogonalEdgeStyle;rounded=0;orthogonalLoop=1;jettySize=auto;html=1;exitX=1;exitY=0.5;exitDx=0;exitDy=0;entryX=0;entryY=0.5;entryDx=0;entryDy=0;" edge="1" parent="1" source="la51kNFiHTf-xQGP7l3h-9" target="la51kNFiHTf-xQGP7l3h-14">
          <mxGeometry relative="1" as="geometry" />
        </mxCell>
        <mxCell id="la51kNFiHTf-xQGP7l3h-9" value="" style="rounded=1;whiteSpace=wrap;html=1;" vertex="1" parent="1">
          <mxGeometry x="470" y="730" width="100" height="400" as="geometry" />
        </mxCell>
        <mxCell id="la51kNFiHTf-xQGP7l3h-10" value="" style="ellipse;whiteSpace=wrap;html=1;aspect=fixed;" vertex="1" parent="1">
          <mxGeometry x="480" y="890" width="80" height="80" as="geometry" />
        </mxCell>
        <mxCell id="la51kNFiHTf-xQGP7l3h-11" value="" style="ellipse;whiteSpace=wrap;html=1;aspect=fixed;" vertex="1" parent="1">
          <mxGeometry x="480" y="790" width="80" height="80" as="geometry" />
        </mxCell>
        <mxCell id="la51kNFiHTf-xQGP7l3h-12" value="" style="ellipse;whiteSpace=wrap;html=1;aspect=fixed;" vertex="1" parent="1">
          <mxGeometry x="480" y="980" width="80" height="80" as="geometry" />
        </mxCell>
        <mxCell id="la51kNFiHTf-xQGP7l3h-13" value="&lt;font style=&quot;font-size: 24px;&quot;&gt;[Kp,Kd,Ki]&lt;br&gt;&lt;/font&gt;" style="edgeStyle=orthogonalEdgeStyle;rounded=0;orthogonalLoop=1;jettySize=auto;html=1;exitX=1;exitY=0.5;exitDx=0;exitDy=0;" edge="1" parent="1" source="la51kNFiHTf-xQGP7l3h-14">
          <mxGeometry x="0.3333" relative="1" as="geometry">
            <mxPoint x="950" y="930.2857142857144" as="targetPoint" />
            <Array as="points">
              <mxPoint x="890" y="930" />
              <mxPoint x="890" y="930" />
            </Array>
            <mxPoint as="offset" />
          </mxGeometry>
        </mxCell>
        <mxCell id="la51kNFiHTf-xQGP7l3h-14" value="" style="rounded=1;whiteSpace=wrap;html=1;" vertex="1" parent="1">
          <mxGeometry x="640" y="730" width="100" height="400" as="geometry" />
        </mxCell>
        <mxCell id="la51kNFiHTf-xQGP7l3h-15" value="" style="ellipse;whiteSpace=wrap;html=1;aspect=fixed;" vertex="1" parent="1">
          <mxGeometry x="650" y="890" width="80" height="80" as="geometry" />
        </mxCell>
        <mxCell id="la51kNFiHTf-xQGP7l3h-16" value="" style="ellipse;whiteSpace=wrap;html=1;aspect=fixed;" vertex="1" parent="1">
          <mxGeometry x="650" y="790" width="80" height="80" as="geometry" />
        </mxCell>
        <mxCell id="la51kNFiHTf-xQGP7l3h-17" value="" style="ellipse;whiteSpace=wrap;html=1;aspect=fixed;" vertex="1" parent="1">
          <mxGeometry x="650" y="980" width="80" height="80" as="geometry" />
        </mxCell>
        <mxCell id="la51kNFiHTf-xQGP7l3h-18" value="&lt;font style=&quot;font-size: 18px;&quot;&gt;W_t&lt;/font&gt;" style="text;html=1;strokeColor=none;fillColor=none;align=center;verticalAlign=middle;whiteSpace=wrap;rounded=0;" vertex="1" parent="1">
          <mxGeometry x="330" y="1130" width="60" height="30" as="geometry" />
        </mxCell>
        <mxCell id="la51kNFiHTf-xQGP7l3h-19" value="&lt;font style=&quot;font-size: 18px;&quot;&gt;W_t&lt;/font&gt;" style="text;html=1;strokeColor=none;fillColor=none;align=center;verticalAlign=middle;whiteSpace=wrap;rounded=0;" vertex="1" parent="1">
          <mxGeometry x="490" y="1130" width="60" height="30" as="geometry" />
        </mxCell>
        <mxCell id="la51kNFiHTf-xQGP7l3h-20" value="&lt;font style=&quot;font-size: 18px;&quot;&gt;W_t&lt;/font&gt;" style="text;html=1;strokeColor=none;fillColor=none;align=center;verticalAlign=middle;whiteSpace=wrap;rounded=0;" vertex="1" parent="1">
          <mxGeometry x="660" y="1130" width="60" height="30" as="geometry" />
        </mxCell>
        <mxCell id="la51kNFiHTf-xQGP7l3h-21" style="edgeStyle=orthogonalEdgeStyle;rounded=0;orthogonalLoop=1;jettySize=auto;html=1;exitX=1;exitY=0.5;exitDx=0;exitDy=0;" edge="1" parent="1" source="la51kNFiHTf-xQGP7l3h-22" target="la51kNFiHTf-xQGP7l3h-3">
          <mxGeometry relative="1" as="geometry" />
        </mxCell>
        <mxCell id="la51kNFiHTf-xQGP7l3h-22" value="&lt;font style=&quot;font-size: 18px;&quot;&gt;X_(t-2)&lt;/font&gt;" style="triangle;whiteSpace=wrap;html=1;direction=north;" vertex="1" parent="1">
          <mxGeometry x="292.5" y="1240" width="135" height="110" as="geometry" />
        </mxCell>
        <mxCell id="la51kNFiHTf-xQGP7l3h-23" style="edgeStyle=orthogonalEdgeStyle;rounded=0;orthogonalLoop=1;jettySize=auto;html=1;exitX=1;exitY=0.5;exitDx=0;exitDy=0;" edge="1" parent="1" source="la51kNFiHTf-xQGP7l3h-24" target="la51kNFiHTf-xQGP7l3h-14">
          <mxGeometry relative="1" as="geometry" />
        </mxCell>
        <mxCell id="la51kNFiHTf-xQGP7l3h-24" value="&lt;font style=&quot;font-size: 18px;&quot;&gt;X_(t)&lt;/font&gt;" style="triangle;whiteSpace=wrap;html=1;direction=north;" vertex="1" parent="1">
          <mxGeometry x="630" y="1235" width="120" height="115" as="geometry" />
        </mxCell>
        <mxCell id="la51kNFiHTf-xQGP7l3h-25" style="edgeStyle=orthogonalEdgeStyle;rounded=0;orthogonalLoop=1;jettySize=auto;html=1;exitX=1;exitY=0.5;exitDx=0;exitDy=0;" edge="1" parent="1" source="la51kNFiHTf-xQGP7l3h-26" target="la51kNFiHTf-xQGP7l3h-9">
          <mxGeometry relative="1" as="geometry" />
        </mxCell>
        <mxCell id="la51kNFiHTf-xQGP7l3h-26" value="&lt;font style=&quot;font-size: 18px;&quot;&gt;X_(t-1)&lt;/font&gt;" style="triangle;whiteSpace=wrap;html=1;direction=north;" vertex="1" parent="1">
          <mxGeometry x="455" y="1230" width="130" height="120" as="geometry" />
        </mxCell>
      </root>
    </mxGraphModel>
  </diagram>
</mxfile>
